<svg xmlns="http://www.w3.org/2000/svg" version="1.1" xmlns:xlink="http://www.w3.org/1999/xlink" xmlns:svgjs="http://svgjs.dev/svgjs" width="1000" height="280" viewBox="0 0 1000 280"><g transform="matrix(1,0,0,1,-0.6060606060606233,0.44078700092481427)"><svg viewBox="0 0 396 111" data-background-color="#331e6d" preserveAspectRatio="xMidYMid meet" height="280" width="1000" xmlns="http://www.w3.org/2000/svg" xmlns:xlink="http://www.w3.org/1999/xlink"><defs></defs><g id="tight-bounds" transform="matrix(1,0,0,1,0.2400000000000091,-0.17474056108090963)"><svg viewBox="0 0 395.52 111.34947758248668" height="111.34947758248668" width="395.52"><g><svg viewBox="0 0 589.991787366627 166.09849641290324" height="111.34947758248668" width="395.52"><g transform="matrix(1,0,0,1,194.47178736662704,22.95572562580646)"><svg viewBox="0 0 395.52000000000004 120.18704516129033" height="120.18704516129033" width="395.52000000000004"><g><svg viewBox="0 0 395.52000000000004 120.18704516129033" height="120.18704516129033" width="395.52000000000004"><g><svg viewBox="0 0 395.52000000000004 120.18704516129033" height="120.18704516129033" width="395.52000000000004"><g transform="matrix(1,0,0,1,0,0)"><svg width="395.52000000000004" viewBox="1.75 -36 154.99000549316406 47.099998474121094" height="120.18704516129033" data-palette-color="#ffcf31"><path d="M23.35-23.85L23.35 11.1 17.65 10.05 17.65-3.1Q16.65-1.4 15-0.55 13.35 0.3 10.95 0.3L10.95 0.3Q8.6 0.3 6.88-0.58 5.15-1.45 4-3.08 2.85-4.7 2.3-7 1.75-9.3 1.75-12.1L1.75-12.1Q1.75-14.95 2.63-17.38 3.5-19.8 5.08-21.55 6.65-23.3 8.85-24.3 11.05-25.3 13.7-25.3L13.7-25.3Q15.2-25.3 16.88-25.05 18.55-24.8 20-24.55L20-24.55Q21.65-24.25 23.35-23.85L23.35-23.85ZM11.9-3.75Q13.1-3.75 14.15-4.58 15.2-5.4 15.98-6.78 16.75-8.15 17.2-9.93 17.65-11.7 17.65-13.55L17.65-13.55 17.65-20.75Q17.15-20.9 16.15-21.1 15.15-21.3 14.35-21.3L14.35-21.3Q12.45-21.3 11.23-20.65 10-20 9.25-18.85 8.5-17.7 8.2-16.1 7.9-14.5 7.9-12.6L7.9-12.6Q7.9-10.85 8-9.25 8.1-7.65 8.53-6.43 8.95-5.2 9.75-4.48 10.55-3.75 11.9-3.75L11.9-3.75ZM44.65-12.7L44.65-24.9 50.35-24.9 50.35-12.05Q50.35-9.05 50.72-7.03 51.1-5 51.55-3.75L51.55-3.75Q52.1-2.25 52.75-1.4L52.75-1.4 48.3 0.4Q47.7-0.15 47.2-1L47.2-1Q46.8-1.7 46.37-2.73 45.95-3.75 45.8-5.15L45.8-5.15Q44.45-2.2 42-0.95 39.55 0.3 36.9 0.3L36.9 0.3Q32.95 0.3 31.27-2 29.6-4.3 29.6-8.3L29.6-8.3 29.6-24.9 35.3-24.9 35.3-8.4Q35.3-6.3 36.05-5.1 36.8-3.9 38.6-3.9L38.6-3.9Q39.7-3.9 40.77-4.53 41.85-5.15 42.72-6.3 43.6-7.45 44.12-9.08 44.65-10.7 44.65-12.7L44.65-12.7ZM62.55 0.2Q59.9 0.2 58.5-1.38 57.09-2.95 57.09-5.45L57.09-5.45 57.09-24.9 62.8-24.9 62.8-5.95Q62.8-4.8 63.15-4.4 63.5-4 64.2-4L64.2-4Q64.4-4 64.62-4 64.84-4 65.05-4.05L65.05-4.05Q65.25-4.05 65.5-4.1L65.5-4.1 66.09-0.5Q65.75-0.3 65.2-0.15L65.2-0.15Q64.75 0 64.07 0.1 63.4 0.2 62.55 0.2L62.55 0.2ZM60.05-36Q61.65-36 62.5-35.05 63.34-34.1 63.34-32.6L63.34-32.6Q63.34-31.1 62.47-30.1 61.59-29.1 59.9-29.1L59.9-29.1Q58.3-29.1 57.42-30.08 56.55-31.05 56.55-32.45L56.55-32.45Q56.55-34 57.42-35 58.3-36 60.05-36L60.05-36ZM86.49 0L68.34 0 68.34-3.4 79.39-20.9Q76.84-20.75 74.34-20.75L74.34-20.75 69.44-20.75 68.74-24.9 86.04-24.9 86.04-21.5 75.14-4Q77.39-4.15 79.64-4.15L79.64-4.15 86.49-4.15 86.49 0ZM100.39-25.5Q106.14-25.5 108.74-22.1 111.34-18.7 111.34-12.75L111.34-12.75Q111.34-9.95 110.64-7.53 109.94-5.1 108.52-3.33 107.09-1.55 104.94-0.53 102.79 0.5 99.94 0.5L99.94 0.5Q97.09 0.5 95.02-0.38 92.94-1.25 91.59-2.9 90.24-4.55 89.62-6.9 88.99-9.25 88.99-12.2L88.99-12.2Q88.99-15.05 89.69-17.48 90.39-19.9 91.82-21.68 93.24-23.45 95.39-24.48 97.54-25.5 100.39-25.5L100.39-25.5ZM99.89-21.3Q98.44-21.3 97.52-20.65 96.59-20 96.07-18.82 95.54-17.65 95.34-16.07 95.14-14.5 95.14-12.7L95.14-12.7Q95.14-10.85 95.37-9.2 95.59-7.55 96.19-6.33 96.79-5.1 97.82-4.4 98.84-3.7 100.44-3.7L100.44-3.7Q101.89-3.7 102.82-4.35 103.74-5 104.27-6.18 104.79-7.35 104.99-8.9 105.19-10.45 105.19-12.25L105.19-12.25Q105.19-14.1 104.97-15.75 104.74-17.4 104.14-18.65 103.54-19.9 102.52-20.6 101.49-21.3 99.89-21.3L99.89-21.3ZM126.24-25.5Q131.99-25.5 134.59-22.1 137.19-18.7 137.19-12.75L137.19-12.75Q137.19-9.95 136.49-7.53 135.79-5.1 134.36-3.33 132.94-1.55 130.79-0.53 128.64 0.5 125.79 0.5L125.79 0.5Q122.94 0.5 120.86-0.38 118.79-1.25 117.44-2.9 116.09-4.55 115.46-6.9 114.84-9.25 114.84-12.2L114.84-12.2Q114.84-15.05 115.54-17.48 116.24-19.9 117.66-21.68 119.09-23.45 121.24-24.48 123.39-25.5 126.24-25.5L126.24-25.5ZM125.74-21.3Q124.29-21.3 123.36-20.65 122.44-20 121.91-18.82 121.39-17.65 121.19-16.07 120.99-14.5 120.99-12.7L120.99-12.7Q120.99-10.85 121.21-9.2 121.44-7.55 122.04-6.33 122.64-5.1 123.66-4.4 124.69-3.7 126.29-3.7L126.29-3.7Q127.74-3.7 128.66-4.35 129.59-5 130.11-6.18 130.64-7.35 130.84-8.9 131.04-10.45 131.04-12.25L131.04-12.25Q131.04-14.1 130.81-15.75 130.59-17.4 129.99-18.65 129.39-19.9 128.36-20.6 127.34-21.3 125.74-21.3L125.74-21.3ZM139.44-20.85L139.44-24.9 143.94-24.9 144.94-30.75 149.63-31.8 149.63-24.9 155.78-24.9 155.09-20.85 149.63-20.85 149.63-6.05Q149.63-4.75 150.34-4.38 151.03-4 151.88-4L151.88-4Q152.59-4 153.28-4.1 153.99-4.2 154.53-4.35L154.53-4.35Q155.19-4.5 155.78-4.7L155.78-4.7 156.74-0.95 156.28-0.8Q155.84-0.6 154.96-0.38 154.09-0.15 152.91 0.03 151.74 0.2 150.34 0.2L150.34 0.2Q148.94 0.2 147.76-0.1 146.59-0.4 145.74-1.07 144.88-1.75 144.41-2.8 143.94-3.85 143.94-5.4L143.94-5.4 143.94-20.85 139.44-20.85Z" opacity="1" transform="matrix(1,0,0,1,0,0)" fill="#ffcf31" class="undefined-text-0" data-fill-palette-color="primary" id="text-0"></path></svg></g></svg></g></svg></g></svg></g><g><svg viewBox="0 0 166.09851049313028 166.09849641290324" height="166.09849641290324" width="166.09851049313028"><g><svg xmlns="http://www.w3.org/2000/svg" xmlns:xlink="http://www.w3.org/1999/xlink" version="1.2" baseProfile="tiny" x="0" y="0" viewBox="5 4.999249458312988 90.0007553100586 90.00074768066406" xml:space="preserve" height="166.09849641290324" width="166.09851049313028" class="icon-icon-0" data-fill-palette-color="accent" id="icon-0"><path d="M5.732 50.518l8.75 8.75c0.976 0.977 2.56 0.977 3.535 0L32.5 44.786l14.482 14.482C47.47 59.756 48.11 60 48.75 60s1.28-0.244 1.768-0.732l8.75-8.75c0.977-0.976 0.977-2.559 0-3.535L44.786 32.5l14.482-14.482c0.977-0.976 0.977-2.559 0-3.535l-8.75-8.75c-0.976-0.977-2.56-0.977-3.535 0L32.5 20.214 18.018 5.732c-0.976-0.977-2.56-0.977-3.535 0l-8.75 8.75c-0.977 0.976-0.977 2.559 0 3.535L20.214 32.5 5.732 46.982C4.756 47.958 4.756 49.542 5.732 50.518zM25.518 34.268c0.977-0.976 0.977-2.559 0-3.535L11.036 16.25l5.214-5.214 14.482 14.482c0.976 0.977 2.56 0.977 3.535 0L48.75 11.036l5.214 5.214L39.482 30.732c-0.977 0.976-0.977 2.559 0 3.535L53.964 48.75l-5.214 5.214L34.268 39.482C33.78 38.994 33.14 38.75 32.5 38.75s-1.28 0.244-1.768 0.732L16.25 53.964l-5.214-5.214L25.518 34.268z" fill="#ffcf31" data-fill-palette-color="accent"></path><path d="M85.518 39.482c-0.976-0.977-2.56-0.977-3.535 0L50 71.464 34.268 55.732c-0.976-0.977-2.56-0.977-3.535 0l-8.75 8.75c-0.977 0.976-0.977 2.559 0 3.535l26.25 26.25C48.72 94.756 49.36 95 50 95s1.28-0.244 1.768-0.732l42.5-42.5c0.977-0.976 0.977-2.559 0-3.535L85.518 39.482zM50 88.964L27.286 66.25l5.214-5.214 15.732 15.732c0.976 0.977 2.56 0.977 3.535 0L83.75 44.786 88.964 50 50 88.964z" fill="#ffcf31" data-fill-palette-color="accent"></path></svg></g></svg></g></svg></g></svg><rect width="395.52" height="111.34947758248668" fill="none" stroke="none" visibility="hidden"></rect></g></svg></g></svg>