<svg xmlns="http://www.w3.org/2000/svg" version="1.2" baseProfile="tiny" viewBox="5 4.999 90.001 90.001" xml:space="preserve" height="280" width="280" class="icon-icon-0" data-fill-palette-color="accent">
  <path d="m5.732 50.518 8.75 8.75c.976.977 2.56.977 3.535 0L32.5 44.786l14.482 14.482c.488.488 1.128.732 1.768.732s1.28-.244 1.768-.732l8.75-8.75a2.498 2.498 0 0 0 0-3.535L44.786 32.5l14.482-14.482a2.498 2.498 0 0 0 0-3.535l-8.75-8.75a2.498 2.498 0 0 0-3.535 0L32.5 20.214 18.018 5.732a2.498 2.498 0 0 0-3.535 0l-8.75 8.75a2.498 2.498 0 0 0 0 3.535L20.214 32.5 5.732 46.982a2.501 2.501 0 0 0 0 3.536zm19.786-16.25a2.498 2.498 0 0 0 0-3.535L11.036 16.25l5.214-5.214 14.482 14.482c.976.977 2.56.977 3.535 0L48.75 11.036l5.214 5.214-14.482 14.482a2.498 2.498 0 0 0 0 3.535L53.964 48.75l-5.214 5.214-14.482-14.482c-.488-.488-1.128-.732-1.768-.732s-1.28.244-1.768.732L16.25 53.964l-5.214-5.214 14.482-14.482z" fill="#ffcf31" data-fill-palette-color="accent"/>
  <path d="M85.518 39.482a2.498 2.498 0 0 0-3.535 0L50 71.464 34.268 55.732a2.498 2.498 0 0 0-3.535 0l-8.75 8.75a2.498 2.498 0 0 0 0 3.535l26.25 26.25C48.72 94.756 49.36 95 50 95s1.28-.244 1.768-.732l42.5-42.5a2.498 2.498 0 0 0 0-3.535l-8.75-8.751zM50 88.964 27.286 66.25l5.214-5.214 15.732 15.732c.976.977 2.56.977 3.535 0L83.75 44.786 88.964 50 50 88.964z" fill="#ffcf31" data-fill-palette-color="accent"/>
</svg>
